<?xml version="1.0" encoding="UTF-8" standalone="no"?><!DOCTYPE svg PUBLIC "-//W3C//DTD SVG 1.1//EN" "http://www.w3.org/Graphics/SVG/1.1/DTD/svg11.dtd"><svg width="100%" height="100%" viewBox="0 0 1563 625" version="1.1" xmlns="http://www.w3.org/2000/svg" xmlns:xlink="http://www.w3.org/1999/xlink" xml:space="preserve" xmlns:serif="http://www.serif.com/" style="fill-rule:evenodd;clip-rule:evenodd;stroke-linejoin:round;stroke-miterlimit:2;"><g><path d="M766.968,568.392l-12.013,0l-6.987,42.212l-34.662,0l21.192,-127.838l55.082,0c9.495,0 17.517,1.73 24.066,5.191c6.549,3.46 11.268,8.437 14.157,14.929c2.889,6.492 3.589,14.257 2.102,23.294c-1.487,9.152 -4.79,16.873 -9.91,23.165c-4.789,5.886 -10.779,10.42 -17.97,13.603l18.185,47.656l-37.751,0l-15.49,-42.212Zm-7.554,-26.94l12.148,0c4.118,0 7.722,-0.515 10.81,-1.544c3.089,-1.03 5.605,-2.66 7.55,-4.89c1.945,-2.231 3.203,-5.176 3.775,-8.837c0.915,-5.434 -0.157,-9.395 -3.217,-11.883c-3.06,-2.488 -7.65,-3.732 -13.77,-3.732l-12.183,0l-5.113,30.887Z" style="fill:#0fe0b2;"/><path d="M887.302,612.149c-11.268,0 -20.849,-2.016 -28.742,-6.049c-7.893,-4.032 -13.613,-9.709 -17.159,-17.031c-3.546,-7.321 -4.519,-15.844 -2.917,-25.568l13.384,-80.735l34.662,0l-13.213,80.049c-0.629,3.947 -0.4,7.364 0.686,10.253c1.087,2.889 2.903,5.119 5.448,6.692c2.545,1.573 5.648,2.359 9.309,2.359c4.29,0 8.279,-0.972 11.969,-2.917c3.689,-1.945 6.778,-4.547 9.266,-7.808c2.488,-3.26 4.047,-6.864 4.676,-10.81l12.87,-77.818l34.662,0l-13.728,82.966c-1.602,9.724 -5.205,18.06 -10.81,25.01c-5.605,6.95 -12.727,12.255 -21.364,15.915c-8.637,3.661 -18.303,5.491 -28.999,5.491Z" style="fill:#0fe0b2;fill-rule:nonzero;"/><path d="M961.137,610.604l21.192,-127.838l54.567,0c9.724,0 17.731,1.416 24.023,4.247c6.292,2.831 10.782,6.807 13.47,11.926c2.688,5.119 3.46,11.111 2.317,17.975c-0.686,4.347 -2.431,8.308 -5.234,11.883c-2.803,3.575 -6.306,6.578 -10.51,9.009c-4.204,2.431 -8.823,4.133 -13.856,5.105l0,1.115c5.434,0.172 10.21,1.644 14.328,4.419c4.118,2.774 7.15,6.563 9.095,11.368c1.945,4.805 2.374,10.41 1.287,16.816c-1.087,6.635 -3.789,12.512 -8.108,17.631c-4.318,5.119 -9.981,9.123 -16.988,12.012c-7.007,2.889 -15.143,4.333 -24.409,4.333l-61.173,0Zm39.295,-27.627l15.358,0c5.777,0 10.524,-1.344 14.242,-4.032c3.718,-2.688 5.949,-6.435 6.692,-11.239c0.458,-2.631 0.214,-4.819 -0.729,-6.563c-0.944,-1.745 -2.545,-3.06 -4.805,-3.947c-2.259,-0.887 -5.134,-1.33 -8.623,-1.33l-17.674,0l-4.461,27.112Zm7.979,-48.561l13.384,0c3.032,0 5.877,-0.572 8.537,-1.716c2.66,-1.144 4.905,-2.803 6.735,-4.976c1.83,-2.174 2.974,-4.747 3.432,-7.722c0.572,-3.375 -0.272,-5.877 -2.531,-7.507c-2.259,-1.63 -5.534,-2.445 -9.824,-2.445l-15.701,0l-4.032,24.366Z" style="fill:#0fe0b2;fill-rule:nonzero;"/><path d="M1125.451,586.066l-11.08,24.538l-40.153,0l62.632,-127.838l47.36,0l21.793,127.838l-37.922,0l-3.269,-24.538l-39.36,0Zm35.909,-25.911c-1.378,-10.489 -2.498,-21.371 -3.361,-32.646c-0.421,-5.499 -0.813,-10.981 -1.176,-16.448c-2.058,5.467 -4.126,10.949 -6.203,16.448c-4.259,11.275 -8.749,22.157 -13.469,32.646l24.209,-0Z" style="fill:#0fe0b2;"/><path d="M1215.097,510.736l4.633,-27.97l111.022,0l-4.633,27.97l-38.18,0l-16.559,99.868l-34.662,0l16.559,-99.868l-38.18,0Z" style="fill:#0fe0b2;fill-rule:nonzero;"/><path d="M1322.601,610.604l21.192,-127.838l92.146,0l-4.633,27.97l-57.484,0l-3.603,21.621l52.68,0l-4.547,27.284l-52.68,0l-3.775,22.994l57.141,0l-4.633,27.97l-91.803,0Z" style="fill:#0fe0b2;fill-rule:nonzero;"/><path d="M1550.524,580.005c-0.114,0.19 -0.229,0.38 -0.345,0.57c-3.46,5.663 -7.908,10.896 -13.341,15.701c-5.434,4.805 -11.826,8.68 -19.176,11.626c-7.35,2.946 -15.601,4.419 -24.753,4.419c-10.524,0 -19.805,-2.031 -27.841,-6.092c-8.036,-4.061 -14.314,-10.01 -18.833,-17.846c-4.519,-7.836 -6.778,-17.417 -6.778,-28.742c0,-10.696 1.673,-20.777 5.019,-30.244c3.346,-9.466 8.165,-17.832 14.457,-25.096c6.292,-7.264 13.842,-12.955 22.65,-17.074c8.809,-4.118 18.647,-6.177 29.514,-6.177c8.008,0 15.286,1.058 21.835,3.174c6.549,2.116 12.14,5.219 16.773,9.309c4.633,4.09 8.094,9.137 10.381,15.143c1.152,3.024 1.956,6.281 2.412,9.769l-34.813,10.994l-0.031,0c0.114,-2.746 -0.143,-5.234 -0.772,-7.464c-0.629,-2.231 -1.659,-4.147 -3.089,-5.748c-1.43,-1.602 -3.232,-2.831 -5.405,-3.689c-2.174,-0.858 -4.747,-1.287 -7.722,-1.287c-6.12,0 -11.44,1.459 -15.958,4.376c-4.519,2.917 -8.251,6.764 -11.197,11.54c-2.946,4.776 -5.148,9.995 -6.606,15.658c-1.459,5.663 -2.188,11.239 -2.188,16.73c0,5.033 0.786,9.223 2.359,12.569c1.573,3.346 3.889,5.849 6.95,7.507c3.06,1.659 6.792,2.488 11.197,2.488c3.375,0 6.506,-0.429 9.395,-1.287c2.889,-0.858 5.491,-2.088 7.808,-3.689c2.317,-1.602 4.304,-3.518 5.963,-5.748c1.604,-2.157 2.833,-4.554 3.689,-7.193l28.445,15.803Z" style="fill:#0fe0b2;"/><path d="M50.385,416.387l-3.328,17.962c-0.476,2.566 1.219,5.032 3.786,5.508l24.164,4.478c2.566,0.476 5.032,-1.219 5.508,-3.786l18.944,-102.233c0.137,-0.739 -0.025,-1.503 -0.451,-2.123c-0.426,-0.62 -1.081,-1.045 -1.82,-1.182c25.396,-34.209 54.269,-61.704 85.776,-84.111l18.036,-17.686c14.838,-16.75 26.163,-38.271 32.544,-63.409c16.637,-65.545 -21.794,-130.101 -93.527,-143.742c-71.858,-12.967 -130.867,33.533 -138.82,100.687c-3.05,25.756 -0.188,49.906 7.663,70.86l10.502,22.975c21.387,32.209 38.491,68.224 49.944,109.261c-0.739,-0.137 -1.503,0.025 -2.123,0.451c-0.62,0.426 -1.045,1.081 -1.182,1.82l-3.002,16.202c5.117,5.243 10.347,9.872 15.666,14.022c-6.285,-2.19 -11.951,-4.61 -16.913,-7.294l-2.542,13.718c5.117,5.243 10.347,9.872 15.666,14.022c-6.285,-2.19 -11.951,-4.61 -16.913,-7.294l-2.542,13.718c5.117,5.243 10.347,9.872 15.666,14.022c-6.285,-2.19 -11.951,-4.61 -16.913,-7.294l-2.542,13.718c5.117,5.243 10.347,9.872 15.666,14.022c-6.285,-2.19 -11.951,-4.61 -16.913,-7.294Zm70.828,-224.002c2.565,0.475 4.261,2.943 3.786,5.508c-0.475,2.565 -2.943,4.261 -5.508,3.786c-2.565,-0.475 -4.261,-2.943 -3.786,-5.508c0.475,-2.565 2.943,-4.261 5.508,-3.786Zm33.984,-74.452c2.565,0.475 4.261,2.943 3.786,5.508c-0.475,2.565 -2.943,4.261 -5.508,3.786c-2.565,-0.475 -4.261,-2.943 -3.786,-5.508c0.475,-2.565 2.943,-4.261 5.508,-3.786Zm-26.75,35.418c2.565,0.475 4.261,2.943 3.786,5.508c-0.475,2.565 -2.943,4.261 -5.508,3.786c-2.565,-0.475 -4.261,-2.943 -3.786,-5.508c0.475,-2.565 2.943,-4.261 5.508,-3.786Zm43.58,-12.112c2.565,0.475 4.261,2.943 3.786,5.508c-0.475,2.565 -2.943,4.261 -5.508,3.786c-2.565,-0.475 -4.261,-2.943 -3.786,-5.508c0.475,-2.565 2.943,-4.261 5.508,-3.786Zm-20.447,-3.789c2.565,0.475 4.261,2.943 3.786,5.508c-0.475,2.565 -2.943,4.261 -5.508,3.786c-2.565,-0.475 -4.261,-2.943 -3.786,-5.508c0.475,-2.565 2.943,-4.261 5.508,-3.786Zm24.063,-15.728c2.565,0.475 4.261,2.943 3.786,5.508c-0.475,2.565 -2.943,4.261 -5.508,3.786c-2.565,-0.475 -4.261,-2.943 -3.786,-5.508c0.475,-2.565 2.943,-4.261 5.508,-3.786Zm-54.935,-30.367c2.565,0.475 4.261,2.943 3.786,5.508c-0.475,2.565 -2.943,4.261 -5.508,3.786c-2.565,-0.475 -4.261,-2.943 -3.786,-5.508c0.475,-2.565 2.943,-4.261 5.508,-3.786Zm11.355,42.479c2.565,0.475 4.261,2.943 3.786,5.508c-0.475,2.565 -2.943,4.261 -5.508,3.786c-2.565,-0.475 -4.261,-2.943 -3.786,-5.508c0.475,-2.565 2.943,-4.261 5.508,-3.786Zm-14.971,-22.962c2.565,0.475 4.261,2.943 3.786,5.508c-0.475,2.565 -2.943,4.261 -5.508,3.786c-2.565,-0.475 -4.261,-2.943 -3.786,-5.508c0.475,-2.565 2.943,-4.261 5.508,-3.786Zm-15.901,-23.134c2.565,0.475 4.261,2.943 3.786,5.508c-0.475,2.565 -2.943,4.261 -5.508,3.786c-2.565,-0.475 -4.261,-2.943 -3.786,-5.508c0.475,-2.565 2.943,-4.261 5.508,-3.786Zm-20.447,-3.789c2.565,0.475 4.261,2.943 3.786,5.508c-0.475,2.565 -2.943,4.261 -5.508,3.786c-2.565,-0.475 -4.261,-2.943 -3.786,-5.508c0.475,-2.565 2.943,-4.261 5.508,-3.786Zm108.112,80.595c2.565,0.475 4.261,2.943 3.786,5.508c-0.475,2.565 -2.943,4.261 -5.508,3.786c-2.565,-0.475 -4.261,-2.943 -3.786,-5.508c0.475,-2.565 2.943,-4.261 5.508,-3.786Zm-64.532,-92.707c2.565,0.475 4.261,2.943 3.786,5.508c-0.475,2.565 -2.943,4.261 -5.508,3.786c-2.565,-0.475 -4.261,-2.943 -3.786,-5.508c0.475,-2.565 2.943,-4.261 5.508,-3.786Zm-19.517,-3.617c2.565,0.475 4.261,2.943 3.786,5.508c-0.475,2.565 -2.943,4.261 -5.508,3.786c-2.565,-0.475 -4.261,-2.943 -3.786,-5.508c0.475,-2.565 2.943,-4.261 5.508,-3.786Zm80.432,115.841c2.565,0.475 4.261,2.943 3.786,5.508c-0.475,2.565 -2.943,4.261 -5.508,3.786c-2.565,-0.475 -4.261,-2.943 -3.786,-5.508c0.475,-2.565 2.943,-4.261 5.508,-3.786Zm7.233,-39.034c2.565,0.475 4.261,2.943 3.786,5.508c-0.475,2.565 -2.943,4.261 -5.508,3.786c-2.565,-0.475 -4.261,-2.943 -3.786,-5.508c0.475,-2.565 2.943,-4.261 5.508,-3.786Zm3.617,-19.517c2.565,0.475 4.261,2.943 3.786,5.508c-0.475,2.565 -2.943,4.261 -5.508,3.786c-2.565,-0.475 -4.261,-2.943 -3.786,-5.508c0.475,-2.565 2.943,-4.261 5.508,-3.786Zm-58.976,90.008c2.565,0.475 4.261,2.943 3.786,5.508c-0.475,2.565 -2.943,4.261 -5.508,3.786c-2.565,-0.475 -4.261,-2.943 -3.786,-5.508c0.475,-2.565 2.943,-4.261 5.508,-3.786Zm-19.517,-3.617c2.565,0.475 4.261,2.943 3.786,5.508c-0.475,2.565 -2.943,4.261 -5.508,3.786c-2.565,-0.475 -4.261,-2.943 -3.786,-5.508c0.475,-2.565 2.943,-4.261 5.508,-3.786Zm47.197,-31.629c2.565,0.475 4.261,2.943 3.786,5.508c-0.475,2.565 -2.943,4.261 -5.508,3.786c-2.565,-0.475 -4.261,-2.943 -3.786,-5.508c0.475,-2.565 2.943,-4.261 5.508,-3.786Zm-24.063,15.728c2.565,0.475 4.261,2.943 3.786,5.508c-0.475,2.565 -2.943,4.261 -5.508,3.786c-2.565,-0.475 -4.261,-2.943 -3.786,-5.508c0.475,-2.565 2.943,-4.261 5.508,-3.786Zm7.233,-39.034c2.565,0.475 4.261,2.943 3.786,5.508c-0.475,2.565 -2.943,4.261 -5.508,3.786c-2.565,-0.475 -4.261,-2.943 -3.786,-5.508c0.475,-2.565 2.943,-4.261 5.508,-3.786Zm-23.134,15.901c2.565,0.475 4.261,2.943 3.786,5.508c-0.475,2.565 -2.943,4.261 -5.508,3.786c-2.565,-0.475 -4.261,-2.943 -3.786,-5.508c0.475,-2.565 2.943,-4.261 5.508,-3.786Zm19.517,3.617c2.565,0.475 4.261,2.943 3.786,5.508c-0.475,2.565 -2.943,4.261 -5.508,3.786c-2.565,-0.475 -4.261,-2.943 -3.786,-5.508c0.475,-2.565 2.943,-4.261 5.508,-3.786Zm16.83,23.306c2.565,0.475 4.261,2.943 3.786,5.508c-0.475,2.565 -2.943,4.261 -5.508,3.786c-2.565,-0.475 -4.261,-2.943 -3.786,-5.508c0.475,-2.565 2.943,-4.261 5.508,-3.786Zm-25.497,-85.474c2.565,0.475 4.261,2.943 3.786,5.508c-0.475,2.565 -2.943,4.261 -5.508,3.786c-2.565,-0.475 -4.261,-2.943 -3.786,-5.508c0.475,-2.565 2.943,-4.261 5.508,-3.786Zm32.73,46.44c2.565,0.475 4.261,2.943 3.786,5.508c-0.475,2.565 -2.943,4.261 -5.508,3.786c-2.565,-0.475 -4.261,-2.943 -3.786,-5.508c0.475,-2.565 2.943,-4.261 5.508,-3.786Zm10.85,-58.551c2.565,0.475 4.261,2.943 3.786,5.508c-0.475,2.565 -2.943,4.261 -5.508,3.786c-2.565,-0.475 -4.261,-2.943 -3.786,-5.508c0.475,-2.565 2.943,-4.261 5.508,-3.786Zm-20.447,-3.789c2.565,0.475 4.261,2.943 3.786,5.508c-0.475,2.565 -2.943,4.261 -5.508,3.786c-2.565,-0.475 -4.261,-2.943 -3.786,-5.508c0.475,-2.565 2.943,-4.261 5.508,-3.786Zm-96.151,83.119c2.565,0.475 4.261,2.943 3.786,5.508c-0.475,2.565 -2.943,4.261 -5.508,3.786c-2.565,-0.475 -4.261,-2.943 -3.786,-5.508c0.475,-2.565 2.943,-4.261 5.508,-3.786Zm-5.98,-81.857c2.565,0.475 4.261,2.943 3.786,5.508c-0.475,2.565 -2.943,4.261 -5.508,3.786c-2.565,-0.475 -4.261,-2.943 -3.786,-5.508c0.475,-2.565 2.943,-4.261 5.508,-3.786Zm26.427,85.646c2.565,0.475 4.261,2.943 3.786,5.508c-0.475,2.565 -2.943,4.261 -5.508,3.786c-2.565,-0.475 -4.261,-2.943 -3.786,-5.508c0.475,-2.565 2.943,-4.261 5.508,-3.786Zm-30.043,-66.129c2.565,0.475 4.261,2.943 3.786,5.508c-0.475,2.565 -2.943,4.261 -5.508,3.786c-2.565,-0.475 -4.261,-2.943 -3.786,-5.508c0.475,-2.565 2.943,-4.261 5.508,-3.786Zm56.794,30.711c2.565,0.475 4.261,2.943 3.786,5.508c-0.475,2.565 -2.943,4.261 -5.508,3.786c-2.565,-0.475 -4.261,-2.943 -3.786,-5.508c0.475,-2.565 2.943,-4.261 5.508,-3.786Zm-39.964,-7.405c2.565,0.475 4.261,2.943 3.786,5.508c-0.475,2.565 -2.943,4.261 -5.508,3.786c-2.565,-0.475 -4.261,-2.943 -3.786,-5.508c0.475,-2.565 2.943,-4.261 5.508,-3.786Zm-3.617,19.517c2.565,0.475 4.261,2.943 3.786,5.508c-0.475,2.565 -2.943,4.261 -5.508,3.786c-2.565,-0.475 -4.261,-2.943 -3.786,-5.508c0.475,-2.565 2.943,-4.261 5.508,-3.786Zm96.151,-83.119c2.565,0.475 4.261,2.943 3.786,5.508c-0.475,2.565 -2.943,4.261 -5.508,3.786c-2.565,-0.475 -4.261,-2.943 -3.786,-5.508c0.475,-2.565 2.943,-4.261 5.508,-3.786Zm-72.088,67.391c2.565,0.475 4.261,2.943 3.786,5.508c-0.475,2.565 -2.943,4.261 -5.508,3.786c-2.565,-0.475 -4.261,-2.943 -3.786,-5.508c0.475,-2.565 2.943,-4.261 5.508,-3.786Zm-40.893,-7.578c2.565,0.475 4.261,2.943 3.786,5.508c-0.475,2.565 -2.943,4.261 -5.508,3.786c-2.565,-0.475 -4.261,-2.943 -3.786,-5.508c0.475,-2.565 2.943,-4.261 5.508,-3.786Zm37.276,27.095c2.565,0.475 4.261,2.943 3.786,5.508c-0.475,2.565 -2.943,4.261 -5.508,3.786c-2.565,-0.475 -4.261,-2.943 -3.786,-5.508c0.475,-2.565 2.943,-4.261 5.508,-3.786Zm7.233,-39.034c2.565,0.475 4.261,2.943 3.786,5.508c-0.475,2.565 -2.943,4.261 -5.508,3.786c-2.565,-0.475 -4.261,-2.943 -3.786,-5.508c0.475,-2.565 2.943,-4.261 5.508,-3.786Zm-12.396,184.392c-3.708,-10.497 -9.424,-26.677 -13.327,-37.839c-0.766,-2.17 -0.217,-4.587 1.412,-6.212c1.629,-1.625 4.047,-2.169 6.215,-1.398c12.473,4.317 25.172,6.716 38.102,7.104c2.319,0.049 4.403,1.428 5.352,3.545c0.95,2.116 0.596,4.59 -0.909,6.355l-25.971,30.46c-1.481,1.737 -3.776,2.55 -6.02,2.135c-2.244,-0.416 -4.095,-1.998 -4.855,-4.15Zm24.679,-141.741c2.565,0.475 4.261,2.943 3.786,5.508c-0.475,2.565 -2.943,4.261 -5.508,3.786c-2.565,-0.475 -4.261,-2.943 -3.786,-5.508c0.475,-2.565 2.943,-4.261 5.508,-3.786Zm36.671,-94.141c2.565,0.475 4.261,2.943 3.786,5.508c-0.475,2.565 -2.943,4.261 -5.508,3.786c-2.565,-0.475 -4.261,-2.943 -3.786,-5.508c0.475,-2.565 2.943,-4.261 5.508,-3.786Zm-63.421,129.559c2.565,0.475 4.261,2.943 3.786,5.508c-0.475,2.565 -2.943,4.261 -5.508,3.786c-2.565,-0.475 -4.261,-2.943 -3.786,-5.508c0.475,-2.565 2.943,-4.261 5.508,-3.786Zm59.804,-110.042c2.565,0.475 4.261,2.943 3.786,5.508c-0.475,2.565 -2.943,4.261 -5.508,3.786c-2.565,-0.475 -4.261,-2.943 -3.786,-5.508c0.475,-2.565 2.943,-4.261 5.508,-3.786Zm-93.464,63.43c2.565,0.475 4.261,2.943 3.786,5.508c-0.475,2.565 -2.943,4.261 -5.508,3.786c-2.565,-0.475 -4.261,-2.943 -3.786,-5.508c0.475,-2.565 2.943,-4.261 5.508,-3.786Zm53.177,50.228c2.565,0.475 4.261,2.943 3.786,5.508c-0.475,2.565 -2.943,4.261 -5.508,3.786c-2.565,-0.475 -4.261,-2.943 -3.786,-5.508c0.475,-2.565 2.943,-4.261 5.508,-3.786Zm-1.434,-101.202c2.565,0.475 4.261,2.943 3.786,5.508c-0.475,2.565 -2.943,4.261 -5.508,3.786c-2.565,-0.475 -4.261,-2.943 -3.786,-5.508c0.475,-2.565 2.943,-4.261 5.508,-3.786Zm-24.063,15.728c2.565,0.475 4.261,2.943 3.786,5.508c-0.475,2.565 -2.943,4.261 -5.508,3.786c-2.565,-0.475 -4.261,-2.943 -3.786,-5.508c0.475,-2.565 2.943,-4.261 5.508,-3.786Zm29.114,65.957c2.565,0.475 4.261,2.943 3.786,5.508c-0.475,2.565 -2.943,4.261 -5.508,3.786c-2.565,-0.475 -4.261,-2.943 -3.786,-5.508c0.475,-2.565 2.943,-4.261 5.508,-3.786Zm-25.497,-85.474c2.565,0.475 4.261,2.943 3.786,5.508c-0.475,2.565 -2.943,4.261 -5.508,3.786c-2.565,-0.475 -4.261,-2.943 -3.786,-5.508c0.475,-2.565 2.943,-4.261 5.508,-3.786Zm36.347,26.923c2.565,0.475 4.261,2.943 3.786,5.508c-0.475,2.565 -2.943,4.261 -5.508,3.786c-2.565,-0.475 -4.261,-2.943 -3.786,-5.508c0.475,-2.565 2.943,-4.261 5.508,-3.786Z" style="fill:#0fe0b2;"/><g><path d="M333.615,359.902c-3.822,-0 -7.083,2.766 -7.708,6.537c-2.608,15.755 -9.217,55.684 -11.825,71.439c-0.624,3.771 -3.885,6.537 -7.708,6.537c-13.795,0 -45.626,0 -61.407,0c-2.295,0 -4.475,-1.009 -5.959,-2.76c-1.484,-1.751 -2.124,-4.066 -1.748,-6.33c7.246,-43.714 38.415,-231.735 44.638,-269.271c0.625,-3.77 3.886,-6.535 7.707,-6.535c25.53,0 116.13,0 116.13,0c21.16,0 38.974,4.175 53.442,12.524c14.468,8.349 24.889,20.108 31.262,35.277c6.374,15.169 7.839,32.887 4.398,53.155c-3.314,20.395 -10.739,38.018 -22.275,52.868c-11.536,14.85 -26.131,26.323 -43.786,34.417c-17.655,8.094 -37.317,12.142 -58.987,12.142l-36.173,0Zm3.312,-60.038l27.125,0c9.178,0 17.272,-1.625 24.283,-4.876c7.011,-3.25 12.747,-7.808 17.208,-13.671c4.461,-5.864 7.33,-12.811 8.604,-20.841c1.402,-8.286 0.86,-15.328 -1.625,-21.128c-2.486,-5.8 -6.724,-10.229 -12.715,-13.289c-5.991,-3.059 -13.576,-4.589 -22.753,-4.589l-27.151,0l-12.976,78.394Z" style="fill:#fff;"/><path d="M582.303,389.73c-3.071,0 -5.856,1.799 -7.12,4.597c-4.656,10.31 -15.886,35.18 -20.541,45.49c-1.264,2.799 -4.05,4.597 -7.12,4.597c-13.704,0 -51.931,0 -71.912,0c-2.696,0 -5.202,-1.39 -6.629,-3.678c-1.427,-2.288 -1.573,-5.15 -0.387,-7.571c23.721,-48.418 116.609,-238.01 131.925,-269.271c1.312,-2.678 4.034,-4.375 7.016,-4.375c17.117,0 74.52,0 94.08,0c3.808,-0 7.061,2.746 7.701,6.5c6.383,37.443 38.437,225.478 45.903,269.271c0.387,2.269 -0.247,4.593 -1.731,6.352c-1.484,1.759 -3.669,2.774 -5.97,2.774c-17.11,-0 -53.313,-0 -68.415,-0c-3.916,-0 -7.227,-2.899 -7.744,-6.781c-1.4,-10.51 -4.078,-30.613 -5.478,-41.123c-0.517,-3.882 -3.828,-6.781 -7.744,-6.781c-17.01,-0 -60.917,-0 -75.831,-0Zm66.108,-57.744c2.241,0 4.375,-0.963 5.858,-2.644c1.483,-1.681 2.173,-3.918 1.894,-6.142c-2.563,-20.652 -4.686,-41.975 -6.37,-63.969c-0.03,-0.387 -0.059,-0.773 -0.089,-1.16c-0.278,-3.651 -3.055,-6.62 -6.68,-7.14c-3.625,-0.52 -7.125,1.547 -8.418,4.973c-0.419,1.109 -0.838,2.217 -1.257,3.327c-8.018,21.223 -16.401,41.821 -25.151,61.795c-1.063,2.416 -0.834,5.205 0.608,7.415c1.442,2.21 3.903,3.543 6.542,3.543c10.012,0.001 24.044,0.001 33.063,0.001Z" style="fill:#fff;"/><path d="M907.296,444.415c-0,0 -81.799,0 -109.716,0c-2.295,0 -4.475,-1.009 -5.959,-2.76c-1.484,-1.751 -2.124,-4.066 -1.748,-6.33c7.246,-43.714 38.415,-231.735 44.638,-269.271c0.625,-3.77 3.886,-6.535 7.707,-6.535c23.132,0 98.921,0 98.921,0c29.318,0 53.92,5.704 73.805,17.113c19.885,11.409 34.13,27.757 42.734,49.044c8.604,21.288 10.421,46.782 5.449,76.482c-4.844,29.573 -14.054,55.003 -27.629,76.291c-13.576,21.288 -31.103,37.604 -52.581,48.949c-21.479,11.345 -46.686,17.017 -75.622,17.017Zm1.265,-219.121c-3.822,-0 -7.082,2.765 -7.707,6.535c-4.03,24.312 -18.165,109.578 -22.83,137.722c-0.375,2.264 0.264,4.579 1.748,6.33c1.484,1.751 3.664,2.76 5.959,2.76c8.636,0 20.227,0 20.227,0c14.149,0 26.578,-2.231 37.285,-6.692c10.708,-4.461 19.63,-12.269 26.769,-23.423c7.138,-11.154 12.301,-26.609 15.488,-46.367c3.314,-19.885 3.378,-35.405 0.191,-46.559c-3.187,-11.154 -9.433,-18.993 -18.738,-23.518c-9.305,-4.525 -21.415,-6.788 -36.329,-6.788l-22.062,0Z" style="fill:#fff;"/><path d="M1098.899,444.415c-2.295,-0 -4.475,-1.009 -5.959,-2.76c-1.484,-1.751 -2.124,-4.066 -1.748,-6.33c7.246,-43.714 38.415,-231.735 44.638,-269.271c0.625,-3.77 3.886,-6.535 7.707,-6.535c30.157,0 154.503,0 189.517,0c2.295,-0 4.474,1.009 5.959,2.76c1.484,1.751 2.124,4.065 1.749,6.33c-2.107,12.722 -5.885,35.531 -7.737,46.708c-0.625,3.771 -3.885,6.536 -7.707,6.536c-22.052,0 -92.823,0 -114.865,0c-3.819,0 -7.078,2.761 -7.706,6.528c-1.401,8.407 -3.844,23.063 -5.426,32.559c-0.378,2.265 0.261,4.582 1.745,6.334c1.484,1.752 3.665,2.763 5.961,2.763c21.935,-0 77.02,-0 98.955,-0c2.297,-0 4.477,1.01 5.961,2.763c1.484,1.752 2.123,4.069 1.745,6.334c-2.066,12.395 -5.715,34.289 -7.53,45.178c-0.628,3.767 -3.887,6.528 -7.706,6.528c-20.613,-0 -83.512,-0 -104.147,-0c-3.826,-0 -7.089,2.771 -7.709,6.547c-1.485,9.044 -4.17,25.398 -5.848,35.618c-0.372,2.263 0.27,4.575 1.754,6.323c1.484,1.748 3.662,2.755 5.955,2.755c23.481,0 85.434,0 108.93,0c2.295,-0 4.474,1.009 5.959,2.76c1.484,1.751 2.124,4.065 1.749,6.329c-2.107,12.722 -5.885,35.531 -7.737,46.708c-0.625,3.771 -3.885,6.536 -7.707,6.536l-188.751,-0Z" style="fill:#fff;"/><path d="M1354.243,444.415c-2.295,0 -4.475,-1.009 -5.959,-2.76c-1.484,-1.751 -2.124,-4.066 -1.748,-6.33c7.246,-43.714 38.415,-231.735 44.638,-269.271c0.625,-3.77 3.886,-6.535 7.707,-6.535c13.794,0 45.626,0 61.408,0c2.295,-0 4.475,1.009 5.959,2.76c1.484,1.751 2.124,4.066 1.748,6.33c-5.969,36.003 -27.919,168.38 -33.888,204.382c-0.375,2.264 0.264,4.579 1.748,6.33c1.484,1.751 3.664,2.76 5.959,2.76c21.564,-0 75.115,-0 96.678,-0c2.295,-0 4.474,1.009 5.959,2.76c1.484,1.751 2.124,4.065 1.749,6.33c-2.107,12.722 -5.885,35.531 -7.737,46.708c-0.625,3.771 -3.885,6.536 -7.707,6.536c-28.793,0 -143.105,0 -176.513,0Z" style="fill:#fff;fill-rule:nonzero;"/></g><g><path d="M511.957,83.837c-1.529,-0 -2.833,1.106 -3.083,2.615c-1.062,6.413 -3.785,22.867 -4.847,29.281c-0.25,1.508 -1.554,2.615 -3.083,2.615c-3.843,0 -10.98,0 -15.334,0c-0.918,-0 -1.79,-0.404 -2.384,-1.104c-0.594,-0.7 -0.85,-1.626 -0.699,-2.532c2.755,-16.617 14.114,-85.139 16.481,-99.417c0.25,-1.508 1.554,-2.614 3.083,-2.614c9.108,-0 38.573,-0 38.573,-0c8,0 14.558,1.516 19.674,4.548c5.116,3.031 8.721,7.229 10.813,12.594c2.092,5.365 2.554,11.524 1.386,18.475c-1.121,6.978 -3.625,13.134 -7.512,18.467c-3.887,5.334 -8.936,9.513 -15.148,12.537c-6.21,3.024 -13.378,4.535 -21.502,4.535l-16.419,0Zm0.844,-21.108c-0.15,0.906 0.106,1.831 0.7,2.532c0.594,0.7 1.465,1.104 2.383,1.104c4.617,-0 11.93,-0 11.93,-0c4.47,0 8.26,-0.777 11.371,-2.33c3.112,-1.554 5.587,-3.69 7.426,-6.408c1.84,-2.719 3.04,-5.817 3.599,-9.296c0.586,-3.552 0.401,-6.658 -0.554,-9.32c-0.954,-2.662 -2.744,-4.74 -5.369,-6.234c-2.624,-1.494 -6.16,-2.241 -10.608,-2.241l-12.901,0c-1.529,-0 -2.833,1.106 -3.083,2.615c-1.043,6.302 -3.699,22.345 -4.896,29.579Z" style="fill:#fff;"/><path d="M606.592,80.65c-1.529,-0 -2.833,1.106 -3.083,2.615c-1.143,6.904 -4.231,25.564 -5.374,32.468c-0.25,1.508 -1.554,2.615 -3.083,2.615c-3.843,-0 -10.98,-0 -15.334,-0c-0.918,-0 -1.79,-0.404 -2.384,-1.104c-0.594,-0.7 -0.85,-1.626 -0.699,-2.532c2.755,-16.617 14.114,-85.139 16.481,-99.417c0.25,-1.508 1.554,-2.614 3.083,-2.614c9.108,-0 38.573,-0 38.573,-0c8.065,0 14.674,1.425 19.827,4.275c5.153,2.849 8.77,6.854 10.853,12.013c2.083,5.159 2.554,11.191 1.412,18.096c-1.142,6.955 -3.628,12.946 -7.457,17.973c-3.829,5.026 -8.825,8.885 -14.989,11.576c-0.017,0.007 -0.034,0.015 -0.051,0.022c-0.673,0.293 -0.997,1.064 -0.736,1.75c2.04,5.357 10.121,26.573 13.606,35.724c0.366,0.96 0.236,2.039 -0.347,2.886c-0.583,0.846 -1.545,1.352 -2.573,1.352c-5.172,-0 -13.416,-0 -17.314,-0c-1.309,-0 -2.479,-0.816 -2.932,-2.044c-2.42,-6.561 -9.976,-27.048 -12.397,-33.61c-0.453,-1.228 -1.623,-2.044 -2.932,-2.044c-3.106,-0 -8.802,-0 -12.149,-0Zm0.854,-21.173c-0.15,0.906 0.106,1.831 0.7,2.532c0.594,0.7 1.465,1.104 2.383,1.104c4.606,-0 11.894,-0 11.894,-0c4.426,0 8.177,-0.605 11.251,-1.815c3.075,-1.21 5.515,-3.009 7.318,-5.396c1.803,-2.388 2.985,-5.333 3.545,-8.837c0.909,-5.449 -0.038,-9.566 -2.839,-12.351c-2.801,-2.785 -7.438,-4.177 -13.911,-4.177l-12.901,0c-1.529,-0 -2.833,1.106 -3.083,2.615c-0.958,5.788 -3.26,19.696 -4.358,26.327Z" style="fill:#fff;"/><path d="M680.911,118.347c-0.918,-0 -1.79,-0.404 -2.384,-1.104c-0.594,-0.7 -0.85,-1.626 -0.699,-2.532c2.755,-16.617 14.114,-85.139 16.481,-99.417c0.25,-1.508 1.554,-2.614 3.083,-2.614c10.842,-0 51.841,-0 64.413,-0c0.918,-0 1.79,0.404 2.384,1.105c0.594,0.701 0.849,1.627 0.699,2.533c-0.577,3.467 -1.431,8.603 -1.943,11.682c-0.251,1.507 -1.555,2.612 -3.083,2.612c-8.532,0 -35.244,0 -43.781,0c-1.529,-0 -2.834,1.107 -3.083,2.616c-0.757,4.582 -2.324,14.07 -3.185,19.287c-0.15,0.906 0.107,1.831 0.7,2.531c0.594,0.7 1.465,1.103 2.383,1.103c8.508,-0 29.449,-0 37.964,-0c0.919,0 1.791,0.404 2.385,1.105c0.594,0.701 0.849,1.628 0.698,2.534c-0.566,3.391 -1.397,8.364 -1.9,11.376c-0.252,1.506 -1.555,2.61 -3.082,2.61c-8.027,0 -32.038,0 -40.072,0c-1.53,-0 -2.835,1.107 -3.083,2.617c-0.788,4.782 -2.463,14.94 -3.362,20.389c-0.149,0.905 0.107,1.831 0.701,2.53c0.594,0.7 1.465,1.103 2.383,1.103c9.13,-0 32.73,-0 41.858,-0c0.917,-0 1.788,0.403 2.382,1.102c0.594,0.699 0.85,1.624 0.701,2.53c-0.57,3.465 -1.414,8.601 -1.921,11.682c-0.248,1.51 -1.553,2.618 -3.084,2.618c-10.863,-0 -51.965,-0 -64.552,-0Z" style="fill:#fff;"/><path d="M804.572,36.566c-0.026,-0.274 -0.253,-0.486 -0.528,-0.492c-0.275,-0.007 -0.512,0.194 -0.551,0.467c0,0.004 -0.001,0.009 -0.001,0.013c-0.577,4.039 -1.146,8.061 -1.709,12.064l-1.578,11.198c-0.489,3.462 -0.935,6.366 -1.339,8.712c0,-0 -6.084,36.939 -7.774,47.202c-0.249,1.51 -1.554,2.617 -3.083,2.617c-3.816,0 -10.87,0 -15.191,0c-0.918,-0 -1.79,-0.404 -2.384,-1.104c-0.594,-0.7 -0.85,-1.626 -0.699,-2.532c2.755,-16.617 14.114,-85.139 16.481,-99.417c0.25,-1.508 1.554,-2.614 3.083,-2.614c6.242,-0 21.809,-0 27.996,-0c1.504,0 2.795,1.072 3.072,2.551c1.868,9.997 8.59,45.959 8.59,45.959c0.352,2.272 0.685,5.22 0.997,8.846c0.312,3.626 0.606,7.518 0.88,11.677c0,0 0,0 0,0c0.078,1.187 0.97,2.16 2.145,2.342c1.176,0.181 2.319,-0.478 2.751,-1.586c0.117,-0.3 0.234,-0.601 0.352,-0.902c1.619,-4.149 3.18,-8.02 4.683,-11.613c1.503,-3.593 2.795,-6.514 3.876,-8.764c0,-0 19.651,-38.231 24.062,-46.813c0.535,-1.042 1.608,-1.696 2.779,-1.696c5.362,0 20.639,0 27.719,0c0.918,0 1.79,0.404 2.384,1.104c0.594,0.7 0.85,1.626 0.699,2.532c-2.755,16.617 -14.114,85.139 -16.481,99.417c-0.25,1.508 -1.554,2.614 -3.083,2.614c-3.855,0 -11.027,0 -15.394,0c-0.918,0 -1.789,-0.403 -2.383,-1.103c-0.594,-0.7 -0.85,-1.625 -0.701,-2.53c1.89,-11.474 7.607,-46.187 7.607,-46.187c0.403,-2.389 0.935,-5.337 1.596,-8.843c0.66,-3.506 1.376,-7.266 2.145,-11.279l2.309,-12.032c0.001,-0.007 0.003,-0.015 0.004,-0.022c0.047,-0.277 -0.12,-0.545 -0.389,-0.624c-0.269,-0.079 -0.555,0.056 -0.665,0.314c-0.199,0.464 -0.398,0.93 -0.599,1.398c-1.793,4.183 -3.564,8.236 -5.314,12.161c-1.75,3.925 -3.388,7.52 -4.914,10.786c-1.526,3.266 -2.826,5.98 -3.898,8.141c0,-0 -20.354,39.416 -24.853,48.128c-0.536,1.039 -1.608,1.691 -2.777,1.691c-3.292,-0 -10.05,-0 -13.763,-0c-1.5,0 -2.788,-1.065 -3.069,-2.538c-1.941,-10.151 -9.043,-47.282 -9.043,-47.282c-0.473,-2.838 -1.02,-6.619 -1.642,-11.342c-0.621,-4.724 -1.239,-9.892 -1.854,-15.502c-0.188,-1.718 -0.371,-3.424 -0.55,-5.117Z" style="fill:#fff;"/><path d="M944.3,12.68c0.918,0 1.79,0.404 2.384,1.104c0.594,0.7 0.85,1.626 0.699,2.532c-2.755,16.617 -14.114,85.139 -16.481,99.417c-0.25,1.508 -1.554,2.614 -3.083,2.614c-3.843,0 -10.98,0 -15.334,0c-0.918,-0 -1.79,-0.404 -2.384,-1.104c-0.594,-0.7 -0.85,-1.626 -0.699,-2.532c2.755,-16.617 14.114,-85.139 16.481,-99.417c0.25,-1.508 1.554,-2.614 3.083,-2.614c3.843,-0 10.98,-0 15.334,-0Z" style="fill:#fff;"/><path d="M961.977,118.347c-0.918,-0 -1.79,-0.404 -2.384,-1.104c-0.594,-0.7 -0.85,-1.626 -0.699,-2.532c2.755,-16.617 14.114,-85.139 16.481,-99.417c0.25,-1.508 1.554,-2.614 3.083,-2.614c10.842,-0 51.841,-0 64.413,-0c0.918,-0 1.79,0.404 2.384,1.105c0.594,0.701 0.849,1.627 0.699,2.533c-0.577,3.467 -1.431,8.603 -1.943,11.682c-0.251,1.507 -1.555,2.612 -3.083,2.612c-8.532,0 -35.244,0 -43.781,0c-1.529,-0 -2.834,1.107 -3.083,2.616c-0.757,4.582 -2.324,14.07 -3.185,19.287c-0.15,0.906 0.107,1.831 0.7,2.531c0.594,0.7 1.465,1.103 2.383,1.103c8.508,-0 29.449,-0 37.964,-0c0.919,0 1.791,0.404 2.385,1.105c0.594,0.701 0.849,1.628 0.698,2.534c-0.566,3.391 -1.397,8.364 -1.9,11.376c-0.252,1.506 -1.555,2.61 -3.082,2.61c-8.027,0 -32.038,0 -40.072,0c-1.53,-0 -2.835,1.107 -3.083,2.617c-0.788,4.782 -2.463,14.94 -3.362,20.389c-0.149,0.905 0.107,1.831 0.701,2.53c0.594,0.7 1.465,1.103 2.383,1.103c9.13,-0 32.73,-0 41.858,-0c0.917,-0 1.788,0.403 2.382,1.102c0.594,0.699 0.85,1.624 0.701,2.53c-0.57,3.465 -1.414,8.601 -1.921,11.682c-0.248,1.51 -1.553,2.618 -3.084,2.618c-10.863,-0 -51.965,-0 -64.552,-0Z" style="fill:#fff;"/><path d="M1085.114,80.65c-1.529,-0 -2.833,1.106 -3.083,2.615c-1.143,6.904 -4.231,25.564 -5.374,32.468c-0.25,1.508 -1.554,2.615 -3.083,2.615c-3.843,-0 -10.98,-0 -15.334,-0c-0.918,-0 -1.79,-0.404 -2.384,-1.104c-0.594,-0.7 -0.85,-1.626 -0.699,-2.532c2.755,-16.617 14.114,-85.139 16.481,-99.417c0.25,-1.508 1.554,-2.614 3.083,-2.614c9.108,-0 38.573,-0 38.573,-0c8.065,0 14.674,1.425 19.827,4.275c5.153,2.849 8.77,6.854 10.853,12.013c2.083,5.159 2.554,11.191 1.412,18.096c-1.142,6.955 -3.628,12.946 -7.457,17.973c-3.829,5.026 -8.825,8.885 -14.989,11.576c-0.017,0.007 -0.034,0.015 -0.051,0.022c-0.673,0.293 -0.997,1.064 -0.736,1.75c2.04,5.357 10.121,26.573 13.606,35.724c0.366,0.96 0.236,2.039 -0.347,2.886c-0.583,0.846 -1.545,1.352 -2.573,1.352c-5.172,-0 -13.416,-0 -17.314,-0c-1.309,-0 -2.479,-0.816 -2.932,-2.044c-2.42,-6.561 -9.976,-27.048 -12.397,-33.61c-0.453,-1.228 -1.623,-2.044 -2.932,-2.044c-3.106,-0 -8.802,-0 -12.149,-0Zm0.253,-17.538l15.579,0c4.426,0 8.177,-0.605 11.251,-1.815c3.075,-1.21 5.515,-3.009 7.318,-5.396c1.803,-2.388 2.985,-5.333 3.545,-8.837c0.909,-5.449 -0.038,-9.566 -2.839,-12.351c-2.801,-2.785 -7.438,-4.177 -13.911,-4.177l-15.551,0l-5.392,32.577Z" style="fill:#fff;"/></g><g><path d="M341.635,12.68c0.918,0 1.79,0.404 2.384,1.104c0.594,0.7 0.85,1.626 0.699,2.532c-2.755,16.617 -14.114,85.139 -16.481,99.417c-0.25,1.508 -1.554,2.614 -3.083,2.614c-3.843,0 -10.98,0 -15.334,0c-0.918,-0 -1.79,-0.404 -2.384,-1.104c-0.594,-0.7 -0.85,-1.626 -0.699,-2.532c2.755,-16.617 14.114,-85.139 16.481,-99.417c0.25,-1.508 1.554,-2.614 3.083,-2.614c3.843,-0 10.98,-0 15.334,-0Z" style="fill:#11efb5;"/><path d="M385.465,12.68c0.918,0 1.79,0.404 2.384,1.104c0.594,0.7 0.85,1.626 0.699,2.532c-2.755,16.617 -14.114,85.139 -16.481,99.417c-0.25,1.508 -1.554,2.614 -3.083,2.614c-3.843,0 -10.98,0 -15.334,0c-0.918,-0 -1.79,-0.404 -2.384,-1.104c-0.594,-0.7 -0.85,-1.626 -0.699,-2.532c2.755,-16.617 14.114,-85.139 16.481,-99.417c0.25,-1.508 1.554,-2.614 3.083,-2.614c3.843,-0 10.98,-0 15.334,-0Z" style="fill:#11efb5;"/><path d="M429.296,12.68c0.918,0 1.79,0.404 2.384,1.104c0.594,0.7 0.85,1.626 0.699,2.532c-2.755,16.617 -14.114,85.139 -16.481,99.417c-0.25,1.508 -1.554,2.614 -3.083,2.614c-3.843,0 -10.98,0 -15.334,0c-0.918,-0 -1.79,-0.404 -2.384,-1.104c-0.594,-0.7 -0.85,-1.626 -0.699,-2.532c2.755,-16.617 14.114,-85.139 16.481,-99.417c0.25,-1.508 1.554,-2.614 3.083,-2.614c3.843,-0 10.98,-0 15.334,-0Z" style="fill:#11efb5;"/><path d="M306.098,12.68c-0.403,0 -0.79,0.16 -1.075,0.445c-0.285,0.285 -0.445,0.672 -0.445,1.075c-0,3.257 -0,10.877 -0,14.134c-0,0.403 0.16,0.79 0.445,1.075c0.285,0.285 0.672,0.445 1.075,0.445c14.525,-0 128.535,-0 143.06,-0c0.403,-0 0.79,-0.16 1.075,-0.445c0.285,-0.285 0.445,-0.672 0.445,-1.075c0,-3.257 0,-10.877 0,-14.134c0,-0.403 -0.16,-0.79 -0.445,-1.075c-0.285,-0.285 -0.672,-0.445 -1.075,-0.445c-14.525,0 -128.535,0 -143.06,0Z" style="fill:#11efb5;"/><path d="M295.14,101.172c-0.403,0 -0.79,0.16 -1.075,0.445c-0.285,0.285 -0.445,0.672 -0.445,1.075c-0,3.257 -0,10.877 -0,14.134c-0,0.403 0.16,0.79 0.445,1.075c0.285,0.285 0.672,0.445 1.075,0.445c14.525,-0 128.535,-0 143.06,-0c0.403,-0 0.79,-0.16 1.075,-0.445c0.285,-0.285 0.445,-0.672 0.445,-1.075c0,-3.257 0,-10.877 0,-14.134c0,-0.403 -0.16,-0.79 -0.445,-1.075c-0.285,-0.285 -0.672,-0.445 -1.075,-0.445c-14.525,0 -128.535,0 -143.06,0Z" style="fill:#11efb5;"/></g></g></svg>