<?xml version="1.0" encoding="UTF-8" standalone="no"?>
<!DOCTYPE svg PUBLIC "-//W3C//DTD SVG 1.1//EN" "http://www.w3.org/Graphics/SVG/1.1/DTD/svg11.dtd">
<svg width="100%" height="100%" viewBox="0 0 2894 827" version="1.1" xmlns="http://www.w3.org/2000/svg" xmlns:xlink="http://www.w3.org/1999/xlink" xml:space="preserve" xmlns:serif="http://www.serif.com/" style="fill-rule:evenodd;clip-rule:evenodd;stroke-linejoin:round;stroke-miterlimit:2;">
    <g id="BASE" transform="matrix(0.4375,0,0,0.4375,-2859.251969,-2618.110236)">
        <g transform="matrix(22.169026,0,0,22.479525,6737.415066,5984.251969)">
            <path d="M0,84.066C-5.024,84.066 -9.111,79.999 -9.111,75L-9.111,9.066C-9.111,4.067 -5.024,0 0,0L280.13,0C285.154,0 289.241,4.067 289.241,9.066L289.241,75C289.241,79.999 285.154,84.066 280.13,84.066L0,84.066Z" style="fill:rgb(0,50,160);fill-rule:nonzero;"/>
            <path d="M0,84.066C-5.024,84.066 -9.111,79.999 -9.111,75L-9.111,9.066C-9.111,4.067 -5.024,0 0,0L280.13,0C285.154,0 289.241,4.067 289.241,9.066L289.241,75C289.241,79.999 285.154,84.066 280.13,84.066L0,84.066ZM0,81.904L280.13,81.904C283.95,81.904 287.048,78.801 287.048,75L287.048,9.066C287.048,5.265 283.95,2.162 280.13,2.162L0,2.162C-3.82,2.162 -6.918,5.265 -6.918,9.066L-6.918,75C-6.918,78.801 -3.82,81.904 0,81.904Z" style="fill:white;"/>
        </g>
        <g transform="matrix(22.35532,0,0,22.373659,7433.210892,7162.972152)">
            <path d="M0,-20.903L3.532,-20.903C4.709,-20.903 5.715,-20.744 6.55,-20.425C7.385,-20.107 8.027,-19.615 8.478,-18.948C8.929,-18.281 9.154,-17.419 9.154,-16.362C9.154,-15.317 8.929,-14.47 8.478,-13.822C8.027,-13.173 7.385,-12.701 6.55,-12.407C5.715,-12.113 4.709,-11.966 3.532,-11.966L0,-11.966L0,-20.903ZM17.848,-9.677C19.019,-11.491 19.605,-13.719 19.605,-16.362C19.605,-18.981 19.034,-21.227 17.893,-23.101C16.752,-24.975 15.154,-26.411 13.1,-27.408C11.046,-28.405 8.649,-28.903 5.91,-28.903L-10.019,-28.903L-10.019,8L0,8L0,-4.181L3.467,-4.181L9.947,8L20.83,8L13.337,-5.757C15.25,-6.676 16.754,-7.982 17.848,-9.677" style="fill:white;fill-rule:nonzero;"/>
        </g>
        <g transform="matrix(22.35532,0,0,22.373659,8451.80863,6842.03768)">
            <path d="M0,8.217C0,9.358 -0.252,10.376 -0.757,11.271C-1.261,12.166 -1.958,12.866 -2.847,13.37C-3.736,13.875 -4.757,14.127 -5.91,14.127C-7.052,14.127 -8.07,13.875 -8.964,13.37C-9.86,12.866 -10.559,12.166 -11.064,11.271C-11.568,10.376 -11.821,9.358 -11.821,8.217L-11.821,-14.559L-21.839,-14.559L-21.839,9.082C-21.839,11.893 -21.175,14.323 -19.848,16.371C-18.521,18.419 -16.662,19.999 -14.271,21.11C-11.881,22.221 -9.094,22.776 -5.91,22.776C-2.751,22.776 0.024,22.221 2.415,21.11C4.805,19.999 6.67,18.419 8.01,16.371C9.349,14.323 10.019,11.893 10.019,9.082L10.019,-14.559L0,-14.559L0,8.217Z" style="fill:white;fill-rule:nonzero;"/>
        </g>
        <g transform="matrix(22.35532,0,0,22.373659,9207.420868,6716.483419)">
            <path d="M0,19.009C-0.841,19.64 -2.102,19.955 -3.784,19.955L-8.469,19.955L-8.469,12.171L-3.64,12.171C-2.619,12.171 -1.745,12.327 -1.018,12.639C-0.291,12.952 0.27,13.408 0.667,14.009C1.063,14.61 1.261,15.342 1.261,16.207C1.261,17.445 0.841,18.378 0,19.009M-8.469,-1.091L-4.216,-1.091C-2.967,-1.091 -1.934,-0.788 -1.117,-0.181C-0.3,0.426 0.108,1.299 0.108,2.441C0.108,3.197 -0.081,3.837 -0.46,4.36C-0.838,4.882 -1.364,5.282 -2.036,5.558C-2.709,5.834 -3.484,5.972 -4.361,5.972L-8.469,5.972L-8.469,-1.091ZM7.604,9.909C6.307,9.171 4.865,8.771 3.279,8.711L3.279,8.351C4.709,8.063 5.958,7.543 7.027,6.792C8.096,6.042 8.928,5.107 9.523,3.99C10.118,2.873 10.415,1.636 10.415,0.278C10.415,-1.596 9.925,-3.223 8.946,-4.605C7.967,-5.986 6.52,-7.056 4.604,-7.812C2.688,-8.569 0.324,-8.947 -2.487,-8.947L-18.488,-8.947L-18.488,27.956L-1.117,27.956C1.561,27.956 3.868,27.505 5.802,26.604C7.736,25.703 9.229,24.466 10.28,22.892C11.331,21.319 11.857,19.523 11.857,17.505C11.857,15.763 11.472,14.246 10.703,12.955C9.934,11.664 8.901,10.648 7.604,9.909" style="fill:white;fill-rule:nonzero;"/>
        </g>
        <g transform="matrix(22.35532,0,0,22.373659,9840.2973,6842.048867)">
            <path d="M0,7.784L3.677,-4.397L3.965,-4.397L7.643,7.784L0,7.784ZM-3.026,-14.56L-15.207,22.344L-4.395,22.344L-2.263,15.28L9.906,15.28L12.038,22.344L22.85,22.344L10.669,-14.56L-3.026,-14.56Z" style="fill:white;fill-rule:nonzero;"/>
        </g>
        <g transform="matrix(22.35532,0,0,22.373659,10263.833383,7161.338875)">
            <path d="M0,-20.758L11.1,-20.758L11.1,8.073L20.974,8.073L20.974,-20.758L32.074,-20.758L32.074,-28.831L0,-28.831L0,-20.758Z" style="fill:white;fill-rule:nonzero;"/>
        </g>
        <g transform="matrix(22.35532,0,0,22.373659,11089.76749,6516.299583)">
            <path d="M0,36.903L26.524,36.903L26.524,28.83L10.019,28.83L10.019,22.488L25.227,22.488L25.227,14.415L10.019,14.415L10.019,8.072L26.596,8.072L26.596,0L0,0L0,36.903Z" style="fill:white;fill-rule:nonzero;"/>
        </g>
        <g transform="matrix(22.35532,0,0,22.373659,12313.265208,6813.663406)">
            <path d="M0,10.322C-0.122,11.097 -0.35,11.794 -0.686,12.413C-1.029,13.044 -1.47,13.582 -2.011,14.026C-2.551,14.47 -3.188,14.81 -3.921,15.044C-4.654,15.278 -5.482,15.395 -6.407,15.395C-8.029,15.395 -9.416,15.014 -10.57,14.251C-11.723,13.488 -12.603,12.347 -13.21,10.828C-13.816,9.308 -14.119,7.419 -14.119,5.161C-14.119,3.023 -13.822,1.19 -13.228,-0.335C-12.633,-1.861 -11.756,-3.032 -10.597,-3.849C-9.438,-4.666 -8.017,-5.074 -6.335,-5.074C-5.374,-5.074 -4.515,-4.939 -3.758,-4.669C-3.002,-4.399 -2.356,-4.014 -1.822,-3.516C-1.287,-3.017 -0.866,-2.425 -0.56,-1.741C-0.259,-1.068 -0.072,-0.318 0.003,0.506L9.91,-1.38C9.628,-2.903 9.17,-4.298 8.531,-5.561C7.63,-7.338 6.44,-8.837 4.963,-10.057C3.485,-11.276 1.767,-12.204 -0.191,-12.84C-2.149,-13.477 -4.293,-13.795 -6.624,-13.795C-9.939,-13.795 -12.942,-13.072 -15.633,-11.624C-18.324,-10.177 -20.462,-8.044 -22.048,-5.227C-23.634,-2.41 -24.426,1.052 -24.426,5.161C-24.426,9.245 -23.649,12.699 -22.093,15.522C-20.537,18.345 -18.417,20.483 -15.732,21.936C-13.047,23.39 -10.011,24.117 -6.624,24.117C-3.921,24.117 -1.548,23.702 0.494,22.873C2.536,22.044 4.251,20.948 5.638,19.585C7.026,18.222 8.098,16.732 8.855,15.116C9.319,14.125 9.663,13.143 9.887,12.172L0,10.322Z" style="fill:white;fill-rule:nonzero;"/>
        </g>
    </g>
</svg>
